:FULLY-SPECIFIED
:FORCE-ALL-JOINTS-BE-3DOF
:DEGREES
453
root 10.7709 17.3531 27.4542 4.46646 2.01624 1.6556
lfemur -19.5685 3.30168 -27.4847
ltibia 28.0433 0 0
lfoot -15.9894 4.23728 0
ltoes 3.4239 0 0
rfemur -21.4106 -1.19743 18.2549
rtibia 57.2485 0 0
rfoot -14.6488 -6.64623 0
rtoes -17.0428 0 0
lowerback -6.8723 -1.86071 -2.68208
upperback 0.740409 -2.34038 1.56625
thorax 4.83108 -1.25359 2.88543
lowerneck -22.6616 -3.75412 -10.8612
upperneck 23.6806 -4.47867 10.7423
head 12.0681 -1.61537 5.15127
lclavicle 9.1041e-15 6.05539e-15 0
lhumerus -19.1884 -16.8316 87.5419
lradius 23.0919 0 0
lwrist -0.222743 0 0
lhand -12.7473 -23.5961 0
lfingers 7.12502 0 0
lthumb 13.3368 5.95635 0
rclavicle 9.1041e-15 6.05539e-15 0
rhumerus -41.341 10.8437 -87.3675
rradius 37.55 0 0
rwrist -16.2362 0 0
rhand -30.781 -28.476 0
rfingers 7.12502 0 0
rthumb -4.07168 -58.4171 0
454
root 10.7849 17.3612 27.5965 4.44488 2.0924 1.81181
lfemur -18.7934 3.32253 -27.6885
ltibia 27.8262 0 0
lfoot -15.9796 4.17471 0
ltoes 3.43514 0 0
rfemur -22.2334 -1.25784 18.0362
rtibia 57.8952 0 0
rfoot -14.8684 -6.91101 0
rtoes -17.1519 0 0
lowerback -6.84019 -1.96691 -2.78405
upperback 0.742144 -2.47117 1.5372
thorax 4.8231 -1.32032 2.89708
lowerneck -22.7286 -3.70803 -10.8167
upperneck 23.7119 -4.41463 10.7099
head 12.0811 -1.58475 5.14331
lclavicle 8.47045e-15 5.4246e-15 0
lhumerus -18.7273 -16.9815 87.4737
lradius 23.1137 0 0
lwrist -0.280257 0 0
lhand -12.7668 -23.5857 0
lfingers 7.12502 0 0
lthumb 13.3179 5.96811 0
rclavicle 8.47045e-15 5.4246e-15 0
rhumerus -41.6057 10.6978 -87.3125
rradius 37.4259 0 0
rwrist -16.1676 0 0
rhand -30.7803 -28.5144 0
rfingers 7.12502 0 0
rthumb -4.07103 -58.4555 0
455
root 10.7977 17.3682 27.739 4.42517 2.16621 1.96144
lfemur -18.0307 3.34128 -27.8808
ltibia 27.6043 0 0
lfoot -15.9672 4.11539 0
ltoes 3.43346 0 0
rfemur -23.0289 -1.31309 17.828
rtibia 58.5002 0 0
rfoot -15.0829 -7.16682 0
rtoes -17.2609 0 0
lowerback -6.80941 -2.06968 -2.88191
upperback 0.743222 -2.59787 1.50986
thorax 4.81504 -1.38494 2.90868
lowerneck -22.7935 -3.66359 -10.7738
upperneck 23.7415 -4.35294 10.679
head 12.0935 -1.55519 5.13575
lclavicle 7.87213e-15 4.82781e-15 0
lhumerus -18.291 -17.1262 87.4119
lradius 23.1387 0 0
lwrist -0.332735 0 0
lhand -12.7837 -23.5767 0
lfingers 7.12502 0 0
lthumb 13.3017 5.97838 0
rclavicle 7.87213e-15 4.82781e-15 0
rhumerus -41.8625 10.5536 -87.256
rradius 37.3015 0 0
rwrist -16.0991 0 0
rhand -30.7786 -28.5478 0
rfingers 7.12502 0 0
rthumb -4.06937 -58.4889 0
456
root 10.8095 17.3741 27.8815 4.40736 2.23751 2.10425
lfemur -17.2819 3.35789 -28.0614
ltibia 27.378 0 0
lfoot -15.9523 4.0594 0
ltoes 3.41902 0 0
rfemur -23.7954 -1.36312 17.6305
rtibia 59.0624 0 0
rfoot -15.2919 -7.4132 0
rtoes -17.3694 0 0
lowerback -6.78002 -2.16884 -2.97547
upperback 0.743649 -2.72024 1.48426
thorax 4.80692 -1.44733 2.92023
lowerneck -22.8561 -3.62087 -10.7326
upperneck 23.7694 -4.29369 10.6496
head 12.1053 -1.52676 5.12861
lclavicle 7.31003e-15 4.26591e-15 0
lhumerus -17.8801 -17.2655 87.3567
lradius 23.1667 0 0
lwrist -0.380122 0 0
lhand -12.7979 -23.5689 0
lfingers 7.12502 0 0
lthumb 13.288 5.98715 0
rclavicle 7.31003e-15 4.26591e-15 0
rhumerus -42.1111 10.4113 -87.1981
rradius 37.1771 0 0
rwrist -16.0309 0 0
rhand -30.7758 -28.5763 0
rfingers 7.12502 0 0
rthumb -4.06671 -58.5174 0
457
root 10.8199 17.3789 28.0242 4.39147 2.30618 2.23997
lfemur -16.5487 3.37237 -28.23
ltibia 27.1479 0 0
lfoot -15.9348 4.00683 0
ltoes 3.39199 0 0
rfemur -24.5317 -1.40786 17.4442
rtibia 59.5812 0 0
rfoot -15.4951 -7.64968 0
rtoes -17.4773 0 0
lowerback -6.75206 -2.26421 -3.06458
upperback 0.743431 -2.83805 1.46044
thorax 4.79876 -1.50736 2.93168
lowerneck -22.9164 -3.57995 -10.6931
upperneck 23.7955 -4.23699 10.6219
head 12.1164 -1.4995 5.12189
lclavicle 6.78504e-15 3.73981e-15 0
lhumerus -17.4954 -17.3991 87.3081
lradius 23.1976 0 0
lwrist -0.422363 0 0
lhand -12.8095 -23.5625 0
lfingers 7.12502 0 0
lthumb 13.2768 5.99441 0
rclavicle 6.78504e-15 3.73981e-15 0
rhumerus -42.3509 10.2712 -87.139
rradius 37.053 0 0
rwrist -15.9632 0 0
rhand -30.7721 -28.5998 0
rfingers 7.12502 0 0
rthumb -4.06306 -58.5409 0
458
root 10.8291 17.3826 28.167 4.37751 2.37209 2.36836
lfemur -15.8325 3.3847 -28.3862
ltibia 26.9146 0 0
lfoot -15.9149 3.95778 0
ltoes 3.35252 0 0
rfemur -25.2362 -1.44725 17.2694
rtibia 60.0557 0 0
rfoot -15.692 -7.87583 0
rtoes -17.5844 0 0
lowerback -6.7256 -2.35558 -3.14906
upperback 0.742574 -2.95107 1.43844
thorax 4.79057 -1.56493 2.94302
lowerneck -22.9741 -3.54091 -10.6554
upperneck 23.8199 -4.18297 10.5958
head 12.1269 -1.47346 5.1156
lclavicle 6.29807e-15 3.25042e-15 0
lhumerus -17.1374 -17.5269 87.2662
lradius 23.2314 0 0
lwrist -0.459402 0 0
lhand -12.8184 -23.5574 0
lfingers 7.12502 0 0
lthumb 13.2683 6.00016 0
rclavicle 6.29807e-15 3.25042e-15 0
rhumerus -42.5814 10.1337 -87.0787
rradius 36.9294 0 0
rwrist -15.896 0 0
rhand -30.7673 -28.6184 0
rfingers 7.12502 0 0
rthumb -4.05845 -58.5596 0
459
root 10.837 17.385 28.3099 4.36551 2.4351 2.48917
lfemur -15.1349 3.39485 -28.5299
ltibia 26.6786 0 0
lfoot -15.8925 3.91235 0
ltoes 3.30079 0 0
rfemur -25.9075 -1.48125 17.1064
rtibia 60.485 0 0
rfoot -15.8821 -8.09116 0
rtoes -17.6903 0 0
lowerback -6.70067 -2.4428 -3.22875
upperback 0.741082 -3.05907 1.41831
thorax 4.78238 -1.61991 2.95422
lowerneck -23.0293 -3.50383 -10.6195
upperneck 23.8424 -4.13172 10.5715
head 12.1368 -1.44869 5.10977
lclavicle 5.85e-15 2.79866e-15 0
lhumerus -16.8068 -17.6484 87.231
lradius 23.2679 0 0
lwrist -0.491185 0 0
lhand -12.8246 -23.5537 0
lfingers 7.12502 0 0
lthumb 13.2623 6.00441 0
rclavicle 5.85e-15 2.79866e-15 0
rhumerus -42.8023 9.9989 -87.0176
rradius 36.8067 0 0
rwrist -15.8296 0 0
rhand -30.7615 -28.6321 0
rfingers 7.12502 0 0
rthumb -4.05289 -58.5733 0
460
root 10.8435 17.3861 28.4529 4.35549 2.49507 2.60215
lfemur -14.4574 3.40281 -28.6606
ltibia 26.4405 0 0
lfoot -15.8679 3.87061 0
ltoes 3.23694 0 0
rfemur -26.5443 -1.50978 16.9555
rtibia 60.8684 0 0
rfoot -16.0652 -8.29524 0
rtoes -17.7948 0 0
lowerback -6.67733 -2.52565 -3.30349
upperback 0.738961 -3.16182 1.40007
thorax 4.7742 -1.67219 2.96526
lowerneck -23.0817 -3.46878 -10.5857
upperneck 23.863 -4.08335 10.5489
head 12.1459 -1.42526 5.1044
lclavicle 5.44173e-15 2.38542e-15 0
lhumerus -16.5044 -17.7635 87.2025
lradius 23.3071 0 0
lwrist -0.517657 0 0
lhand -12.8281 -23.5512 0
lfingers 7.12502 0 0
lthumb 13.2589 6.00713 0
rclavicle 5.44173e-15 2.38542e-15 0
rhumerus -43.0129 9.86726 -86.9556
rradius 36.6851 0 0
rwrist -15.7641 0 0
rhand -30.7548 -28.6407 0
rfingers 7.12502 0 0
rthumb -4.0464 -58.582 0
461
root 10.8491 17.3864 28.5988 4.5036 2.61382 2.67498
lfemur -13.185 3.38351 -29.0324
ltibia 25.9171 0 0
lfoot -15.9532 3.97802 0
ltoes 2.41841 0 0
rfemur -27.6822 -1.36179 17.3349
rtibia 61.0897 0 0
rfoot -16.7011 -8.64675 0
rtoes -18.4634 0 0
lowerback -6.79823 -2.66368 -3.39364
upperback 0.711932 -3.34146 1.45633
thorax 4.83438 -1.76314 3.05547
lowerneck -23.5793 -3.5069 -10.7601
upperneck 24.2976 -4.12638 10.7561
head 12.3759 -1.43206 5.20511
lclavicle 6.06346e-15 2.86309e-15 0
lhumerus -17.1302 -18.2064 89.1082
lradius 24.0409 0 0
lwrist -0.350793 0 0
lhand -12.9453 -24.0595 0
lfingers 7.26064 0 0
lthumb 13.6336 6.0524 0
rclavicle 6.06346e-15 2.86309e-15 0
rhumerus -44.1064 9.71268 -88.3305
rradius 36.9745 0 0
rwrist -15.8592 0 0
rhand -31.2637 -28.9579 0
rfingers 7.26064 0 0
rthumb -4.04952 -59.4703 0
